<?xml version="1.0" standalone="no"?>
<!DOCTYPE svg PUBLIC "-//W3C//DTD SVG 20010904//EN"
 "http://www.w3.org/TR/2001/REC-SVG-20010904/DTD/svg10.dtd">
<svg version="1.0" xmlns="http://www.w3.org/2000/svg"
 width="512.000000pt" height="512.000000pt" viewBox="0 0 512.000000 512.000000"
 preserveAspectRatio="xMidYMid meet">
<metadata>
Created by potrace 1.14, written by Peter Selinger 2001-2017
</metadata>
<g transform="translate(0.000000,512.000000) scale(0.100000,-0.100000)"
fill="#000000" stroke="none">
<path d="M1041 4180 c-59 -20 -113 -66 -144 -125 l-22 -40 -2 -1495 -3 -1495
24 -50 c28 -58 52 -85 109 -123 l42 -27 1510 0 c1439 0 1512 1 1546 18 47 23
103 79 126 126 17 34 18 109 21 1519 1 953 -1 1497 -8 1521 -22 82 -90 153
-172 177 -28 9 -432 12 -1507 12 -1376 0 -1471 -1 -1520 -18z m2987 -203 c16
-17 17 -97 18 -1270 0 -689 -1 -1255 -3 -1259 -2 -4 -54 52 -116 125 -61 72
-114 134 -117 137 -3 3 -15 17 -26 32 -21 26 -57 70 -179 213 -33 38 -144 169
-247 291 -102 121 -203 235 -224 253 -114 101 -305 107 -429 13 -33 -25 -157
-177 -393 -483 l-344 -447 -41 45 c-115 124 -289 153 -435 72 -61 -34 -71 -43
-137 -129 -27 -35 -55 -71 -62 -80 -43 -54 -134 -173 -168 -217 -21 -29 -42
-53 -45 -53 -3 0 -5 616 -5 1368 0 1464 -2 1397 48 1404 12 2 667 3 1455 2
1344 0 1433 -1 1450 -17z m-1048 -1623 c30 -15 81 -68 186 -194 43 -52 106
-127 139 -165 33 -39 80 -95 105 -125 38 -46 177 -210 253 -300 12 -14 58 -68
102 -120 44 -52 82 -97 85 -100 3 -3 48 -56 100 -119 100 -120 112 -147 78
-186 -17 -20 -26 -20 -828 -20 -711 0 -812 2 -820 15 -5 8 -70 94 -144 190
-75 96 -136 178 -136 182 0 4 6 16 14 25 23 28 142 182 385 498 122 160 230
299 239 310 10 11 30 38 46 59 51 67 125 87 196 50z m-1248 -836 c15 -5 52
-42 82 -81 99 -127 316 -409 316 -411 0 -1 -924 1 -928 3 -3 1 12 20 231 304
76 97 139 177 140 177 1 0 20 7 42 14 40 15 67 13 117 -6z"/>
<path d="M1756 3054 c-217 -69 -330 -314 -238 -516 114 -252 430 -311 622
-117 185 187 131 494 -107 611 -54 26 -79 32 -146 35 -54 2 -99 -2 -131 -13z
m192 -208 c158 -82 111 -317 -66 -334 -144 -13 -243 153 -161 273 51 74 150
101 227 61z"/>
</g>
</svg>
